# xmcd
#
# Track frame offsets:
#	150
#	16964
#	31034
#	46246
#	55931
#	67007
#	79270
#	95024
#	108811
#	126762
#	138267
#	152828
#	172497
#	186469
#
# Disc length: 2674 seconds
#
# Revision: 1
# Processed by: cddbd v1.5.2PL0 Copyright (c) Steve Scherf et al.
# Submitted via: audiograbber 1.83.01
#
DISCID=c00a700e
DTITLE=Don Williams - The Gentle Giant
DYEAR=2007
DGENRE=Country
TTITLE0=Fever
TTITLE1=Crying In The Rain
TTITLE2=Lay Down Sally
TTITLE3=My Rifle, My Pony and Me
TTITLE4=Reason To Believe
TTITLE5=I'll Be There There (If You Ever Want Me)
TTITLE6=Games People Play
TTITLE7=Peace Train
TTITLE8=If You Could Read My Mind
TTITLE9=Fly Away
TTITLE10=Long Black Veil
TTITLE11=You've Got A Friend
TTITLE12=Pretend
TTITLE13=Lay Down Beside Me
EXTD=
EXTT0=
EXTT1=
EXTT2=
EXTT3=
EXTT4=
EXTT5=
EXTT6=
EXTT7=
EXTT8=
EXTT9=
EXTT10=
EXTT11=
EXTT12=
EXTT13=
PLAYORDER=
